<svg id="Layer_1" data-name="Layer 1" xmlns="http://www.w3.org/2000/svg" viewBox="0 0 45 380"><title>arjo</title><g id="Rectangle_6" data-name="Rectangle 6"><rect width="45" height="380" style="fill:#e6e6e6"/><rect x="0.5" y="0.5" width="44" height="379" style="fill:none;stroke:#b3b3b3"/></g><rect id="Rectangle_7" data-name="Rectangle 7" x="8" y="318.5" width="29" height="29.5" rx="3.5" ry="3.5"/><g id="clock" style="isolation:isolate"><g style="isolation:isolate"><path d="M13.56,24.07c-.42,0-.67-.32-1.27-.32a1.45,1.45,0,0,0-1.1.46,1.52,1.52,0,0,0-.38,1.06,1.61,1.61,0,0,0,.39,1.09,1.44,1.44,0,0,0,1.1.43c.69,0,.93-.29,1.29-.29a.64.64,0,0,1,.63.66c0,.38-.31.62-.82.79a3.58,3.58,0,0,1-1.14.17,3.08,3.08,0,0,1-2.34-.88,2.79,2.79,0,0,1-.72-2,2.71,2.71,0,0,1,.59-1.76,3.12,3.12,0,0,1,2.5-1.09,3.06,3.06,0,0,1,1.29.26c.39.18.62.41.62.76A.65.65,0,0,1,13.56,24.07Z"/><path d="M15.28,20.5a.77.77,0,0,1,.79-.76.76.76,0,0,1,.79.76v6.85a.79.79,0,0,1-1.58,0Z"/><path d="M21.06,22.4a2.86,2.86,0,1,1,0,5.72,2.86,2.86,0,1,1,0-5.72Zm0,4.39a1.39,1.39,0,0,0,1.41-1.52,1.41,1.41,0,1,0-2.81,0A1.39,1.39,0,0,0,21.06,26.79Z"/><path d="M29.31,24.07c-.42,0-.67-.32-1.27-.32a1.47,1.47,0,0,0-1.11.46,1.52,1.52,0,0,0-.38,1.06,1.61,1.61,0,0,0,.39,1.09,1.48,1.48,0,0,0,1.11.43c.68,0,.92-.29,1.28-.29a.65.65,0,0,1,.64.66c0,.38-.32.62-.83.79a3.53,3.53,0,0,1-1.14.17,3.08,3.08,0,0,1-2.34-.88,3,3,0,0,1-.13-3.75A3.14,3.14,0,0,1,28,22.4a3,3,0,0,1,1.28.26c.39.18.62.41.62.76A.64.64,0,0,1,29.31,24.07Z"/><path d="M34.37,24.85l1.56,2a.77.77,0,0,1,.17.47.8.8,0,0,1-.79.77.74.74,0,0,1-.63-.34l-1.41-2-.66.57v1a.79.79,0,0,1-.79.77.77.77,0,0,1-.79-.77V20.52a.79.79,0,0,1,1.58,0v4.07l2.1-2a.7.7,0,0,1,.49-.19.73.73,0,0,1,.73.73.69.69,0,0,1-.2.5Z"/></g></g><g id="arjo-2" style="isolation:isolate"><g style="isolation:isolate"><path d="M14.34,357.61a8.57,8.57,0,0,1,2.42-.4v-.16a1.45,1.45,0,0,0-.27-1,1.24,1.24,0,0,0-1-.35,2.85,2.85,0,0,0-1.08.2c-.31.12-.45.24-.6.24a.33.33,0,0,1-.33-.34c0-.23.28-.39.59-.52a3.81,3.81,0,0,1,1.52-.29,2,2,0,0,1,1.58.58,2.13,2.13,0,0,1,.46,1.47v3.17a.43.43,0,0,1-.44.42.44.44,0,0,1-.45-.38,3.23,3.23,0,0,1-1.58.38c-1,0-1.94-.5-1.94-1.6A1.45,1.45,0,0,1,14.34,357.61Zm2.42,2v-1.7a9.12,9.12,0,0,0-1.79.22c-.51.13-.91.4-.91.88,0,.67.7.94,1.37.94A3,3,0,0,0,16.76,359.58Z"/><path d="M22.7,355.23c.23.15.35.29.35.5a.38.38,0,0,1-.4.4c-.32,0-.5-.34-1.09-.34a1.15,1.15,0,0,0-1,.48,2.81,2.81,0,0,0-.41,1.58v2.35a.43.43,0,0,1-.44.42.44.44,0,0,1-.45-.42v-4.8a.44.44,0,0,1,.45-.42.43.43,0,0,1,.44.42v.46a1.57,1.57,0,0,1,1.53-.88A2,2,0,0,1,22.7,355.23Z"/><path d="M23.71,355.4a.45.45,0,0,1,.89,0v5.46a3.37,3.37,0,0,1-.47,1.91,1.19,1.19,0,0,1-.9.51c-.25,0-.45-.12-.45-.37s.32-.26.66-.74a2.87,2.87,0,0,0,.27-1.57Zm-.09-2.9a.53.53,0,1,1,.52.53A.53.53,0,0,1,23.62,352.5Z"/><path d="M26.81,355.79a3,3,0,0,1,4.12,0,2.86,2.86,0,0,1,0,4,3,3,0,0,1-4.12,0,2.89,2.89,0,0,1,0-4Zm.6,3.47a1.93,1.93,0,0,0,1.46.64,2,2,0,0,0,1.48-.64,2.31,2.31,0,0,0,0-2.92,2,2,0,0,0-1.48-.64,1.93,1.93,0,0,0-1.46.64,2.24,2.24,0,0,0,0,2.92Z"/></g></g><g id="FREQ" style="isolation:isolate"><g style="isolation:isolate"><path d="M17.74,38.57a.33.33,0,0,1,0,.65H15.65v1.24h1.78a.32.32,0,1,1,0,.64H15.65v1.61a.36.36,0,0,1-.37.35.35.35,0,0,1-.36-.35V38.92a.36.36,0,0,1,.36-.35Z"/><path d="M19.34,42.71a.36.36,0,0,1-.36.35.35.35,0,0,1-.36-.35V38.93a.36.36,0,0,1,.36-.36h1.55a1.88,1.88,0,0,1,1.1.28,1.44,1.44,0,0,1,0,2.19,1.27,1.27,0,0,1-.46.24l.91,1.23a.35.35,0,0,1,.06.19.37.37,0,0,1-.38.36.4.4,0,0,1-.31-.16l-1.09-1.53h-1Zm0-3.52v1.56h1.11a1.17,1.17,0,0,0,.63-.13.82.82,0,0,0,0-1.29,1.15,1.15,0,0,0-.63-.14Z"/><path d="M23.65,42.36h2.29a.32.32,0,0,1,0,.64H23.28a.36.36,0,0,1-.36-.35V38.92a.36.36,0,0,1,.36-.35h2.66a.33.33,0,0,1,0,.65H23.65v1.24h2a.32.32,0,0,1,0,.64h-2Z"/><path d="M28.41,43a2.25,2.25,0,0,1-1.84-2.21,2.35,2.35,0,0,1,4.69,0A2.25,2.25,0,0,1,29.44,43c0,.06.14.07.25.11a12.88,12.88,0,0,0,1.32.36c.22.05.41.1.41.37s-.17.32-.39.32a13,13,0,0,1-2.47-.79.24.24,0,0,1-.19-.24A.28.28,0,0,1,28.41,43Zm.51-3.81a1.6,1.6,0,1,0,1.57,1.6A1.56,1.56,0,0,0,28.92,39.2Z"/></g></g><g id="SWING" style="isolation:isolate"><g style="isolation:isolate"><path d="M15.12,82.92c-.31,0-.53-.25-1.08-.25s-.83.16-.83.52.25.44.61.57a5.61,5.61,0,0,1,1.27.48,1.07,1.07,0,0,1,.54,1c0,.86-.69,1.35-1.64,1.35-.63,0-1.56-.24-1.56-.66a.35.35,0,0,1,.35-.35c.29,0,.53.37,1.2.37s.86-.3.86-.65-.23-.47-.56-.6a9.09,9.09,0,0,1-1.22-.44,1.1,1.1,0,0,1-.61-1c0-.72.57-1.21,1.63-1.21.28,0,1.38.09,1.38.58A.33.33,0,0,1,15.12,82.92Z"/><path d="M18,86.56a1.68,1.68,0,0,1-1.25-.46,1.63,1.63,0,0,1-.42-1.21V82.37a.36.36,0,0,1,.36-.36.37.37,0,0,1,.37.36v2.52a1,1,0,0,0,.24.73.91.91,0,0,0,.7.27.89.89,0,0,0,.65-.24,1.22,1.22,0,0,0,.3-.89V82.37a.37.37,0,0,1,.37-.36.36.36,0,0,1,.36.36v2.39a1.22,1.22,0,0,0,.3.89.88.88,0,0,0,.64.24,1,1,0,0,0,.72-.27,1,1,0,0,0,.23-.73V82.37a.37.37,0,0,1,.37-.36.36.36,0,0,1,.36.36v2.52a1.63,1.63,0,0,1-.42,1.21,1.66,1.66,0,0,1-1.25.46,1.38,1.38,0,0,1-1.31-.76A1.39,1.39,0,0,1,18,86.56Z"/><path d="M23.22,82.37a.37.37,0,0,1,.73,0v3.84a.36.36,0,0,1-.37.35.35.35,0,0,1-.36-.35Z"/><path d="M28.77,86.17a.4.4,0,0,1-.42.39.45.45,0,0,1-.36-.18l-2.42-3.1v3a.34.34,0,0,1-.34.33.33.33,0,0,1-.35-.33V82.41a.4.4,0,0,1,.41-.4.47.47,0,0,1,.36.2l2.42,3.09v-3a.34.34,0,0,1,.35-.34.35.35,0,0,1,.35.34Z"/><path d="M33.31,84.21a.31.31,0,0,1,.32.35v1.65a.34.34,0,0,1-.35.35.33.33,0,0,1-.35-.26,2.45,2.45,0,0,1-1.13.26,2.14,2.14,0,0,1-2.28-2.28A2.3,2.3,0,0,1,31.86,82c.53,0,1.39.14,1.39.58a.32.32,0,0,1-.33.34c-.25,0-.45-.26-1.07-.26a1.59,1.59,0,0,0-1.57,1.61,1.54,1.54,0,0,0,1.57,1.64,2,2,0,0,0,1.07-.3v-.77H32a.32.32,0,0,1,0-.64Z"/></g></g></svg>