<svg id="Layer_1" data-name="Layer 1" xmlns="http://www.w3.org/2000/svg" viewBox="0 0 45 380"><title>arjo</title><g id="Rectangle_16" data-name="Rectangle 16"><rect width="45" height="380" style="fill:#e6e6e6"/><rect x="0.5" y="0.5" width="44" height="379" style="fill:none;stroke:#b3b3b3"/></g><line id="Line_28" data-name="Line 28" x1="22.75" y1="101.25" x2="22.75" y2="134.25" style="fill:none;stroke:#707070"/><g id="note" style="isolation:isolate"><g style="isolation:isolate"><path d="M11.74,22.4a.77.77,0,0,1,.77.66,2.51,2.51,0,0,1,3.25-.12,2.21,2.21,0,0,1,.64,1.73v2.68a.8.8,0,0,1-.8.77.79.79,0,0,1-.79-.77V25.06a1.53,1.53,0,0,0-.28-1,.89.89,0,0,0-.72-.28c-.93,0-1.28.88-1.28,1.67v1.93a.79.79,0,0,1-.79.77.78.78,0,0,1-.8-.77V23.17A.78.78,0,0,1,11.74,22.4Z"/><path d="M20.51,22.4a2.86,2.86,0,1,1,0,5.72,2.86,2.86,0,1,1,0-5.72Zm0,4.39a1.39,1.39,0,0,0,1.4-1.52,1.41,1.41,0,1,0-2.81,0A1.39,1.39,0,0,0,20.51,26.79Z"/><path d="M25,22.51V21.7a.78.78,0,0,1,.79-.78.8.8,0,0,1,.79.78v.81h1.08a.61.61,0,0,1,.61.62.61.61,0,0,1-.61.62H26.54V26c0,.52.18.73.57.73s.61-.33,1-.33a.6.6,0,0,1,.6.63c0,.36-.32.65-.74.84a3.05,3.05,0,0,1-1.17.23A1.73,1.73,0,0,1,25,26.19V23.75h-.38a.62.62,0,0,1-.62-.62.62.62,0,0,1,.62-.62Z"/><path d="M34.21,27.12c0,.33-.23.56-.68.74a4.19,4.19,0,0,1-1.56.26,2.77,2.77,0,0,1-3-2.93,2.86,2.86,0,0,1,.78-2,2.78,2.78,0,0,1,2-.77,2.64,2.64,0,0,1,1.95.72,2.43,2.43,0,0,1,.69,1.73c0,.56-.29.88-.78.88h-3a1.3,1.3,0,0,0,1.41,1.13c.84,0,1.16-.37,1.55-.37A.61.61,0,0,1,34.21,27.12ZM32.9,24.69a1.06,1.06,0,0,0-1.09-1,1.11,1.11,0,0,0-1.16,1Z"/></g></g><g id="arjo-5" style="isolation:isolate"><g style="isolation:isolate"><path d="M14.34,357.61a8.57,8.57,0,0,1,2.42-.4v-.16a1.45,1.45,0,0,0-.27-1,1.24,1.24,0,0,0-1-.35,2.85,2.85,0,0,0-1.08.2c-.31.12-.45.24-.6.24a.33.33,0,0,1-.33-.34c0-.23.28-.39.59-.52a3.81,3.81,0,0,1,1.52-.29,2,2,0,0,1,1.58.58,2.13,2.13,0,0,1,.46,1.47v3.17a.43.43,0,0,1-.44.42.44.44,0,0,1-.45-.38,3.23,3.23,0,0,1-1.58.38c-1,0-1.94-.5-1.94-1.6A1.45,1.45,0,0,1,14.34,357.61Zm2.42,2v-1.7a9.12,9.12,0,0,0-1.79.22c-.51.13-.91.4-.91.88,0,.67.7.94,1.37.94A3,3,0,0,0,16.76,359.58Z"/><path d="M22.7,355.23c.23.15.35.29.35.5a.38.38,0,0,1-.4.4c-.32,0-.5-.34-1.09-.34a1.15,1.15,0,0,0-1,.48,2.81,2.81,0,0,0-.41,1.58v2.35a.43.43,0,0,1-.44.42.44.44,0,0,1-.45-.42v-4.8a.44.44,0,0,1,.45-.42.43.43,0,0,1,.44.42v.46a1.57,1.57,0,0,1,1.53-.88A2,2,0,0,1,22.7,355.23Z"/><path d="M23.71,355.4a.45.45,0,0,1,.89,0v5.46a3.37,3.37,0,0,1-.47,1.91,1.18,1.18,0,0,1-.9.51c-.25,0-.45-.12-.45-.37s.32-.26.66-.74a2.87,2.87,0,0,0,.27-1.57Zm-.09-2.9a.53.53,0,1,1,.52.53A.53.53,0,0,1,23.62,352.5Z"/><path d="M26.81,355.79a3,3,0,0,1,4.12,0,2.86,2.86,0,0,1,0,4,3,3,0,0,1-4.12,0,2.89,2.89,0,0,1,0-4Zm.6,3.47a2,2,0,0,0,2.93,0,2.28,2.28,0,0,0,0-2.92,2,2,0,0,0-2.93,0,2.24,2.24,0,0,0,0,2.92Z"/></g></g><g id="FREQ_IN" data-name="FREQ IN" style="isolation:isolate"><g style="isolation:isolate"><path d="M13.17,38.57a.33.33,0,0,1,0,.65h-2.1v1.24h1.79a.32.32,0,0,1,0,.64H11.07v1.61a.36.36,0,0,1-.36.35.35.35,0,0,1-.36-.35V38.92a.36.36,0,0,1,.36-.35Z"/><path d="M14.77,42.71a.37.37,0,0,1-.73,0V38.93a.37.37,0,0,1,.37-.36H16a1.85,1.85,0,0,1,1.09.28A1.31,1.31,0,0,1,17.57,40a1.33,1.33,0,0,1-.5,1.08,1.24,1.24,0,0,1-.47.24l.91,1.23a.35.35,0,0,1,.06.19.37.37,0,0,1-.37.36.38.38,0,0,1-.31-.16L15.8,41.37h-1Zm0-3.52v1.56h1.11a1.17,1.17,0,0,0,.63-.13.82.82,0,0,0,0-1.29,1.19,1.19,0,0,0-.64-.14Z"/><path d="M19.07,42.36h2.3a.32.32,0,0,1,0,.64H18.71a.36.36,0,0,1-.36-.35V38.92a.36.36,0,0,1,.36-.35h2.66a.33.33,0,0,1,0,.65h-2.3v1.24h2a.32.32,0,0,1,0,.64h-2Z"/><path d="M23.84,43A2.25,2.25,0,0,1,22,40.8a2.35,2.35,0,0,1,4.69,0A2.26,2.26,0,0,1,24.87,43c0,.06.13.07.24.11a13.61,13.61,0,0,0,1.32.36c.22.05.41.1.41.37a.34.34,0,0,1-.38.32A12.79,12.79,0,0,1,24,43.38a.24.24,0,0,1-.19-.24A.2.2,0,0,1,23.84,43Zm.51-3.81a1.6,1.6,0,0,0,0,3.19,1.6,1.6,0,0,0,0-3.19Z"/><path d="M29.1,38.87a.37.37,0,0,1,.73,0v3.84a.36.36,0,0,1-.37.35.35.35,0,0,1-.36-.35Z"/><path d="M34.65,42.67a.4.4,0,0,1-.42.39.45.45,0,0,1-.36-.18l-2.42-3.1v2.95a.34.34,0,0,1-.34.33.34.34,0,0,1-.36-.33V38.91a.41.41,0,0,1,.42-.4.47.47,0,0,1,.36.2L34,41.8V38.85a.34.34,0,0,1,.35-.34.35.35,0,0,1,.35.34Z"/></g></g><g id="OCTAVE" style="isolation:isolate"><g style="isolation:isolate"><path d="M13.18,85.56a2.28,2.28,0,1,1,2.34-2.26A2.27,2.27,0,0,1,13.18,85.56Zm0-3.86a1.6,1.6,0,1,0,1.57,1.6A1.57,1.57,0,0,0,13.18,81.7Z"/><path d="M19.51,81.93c-.27,0-.44-.25-1.09-.25a1.58,1.58,0,0,0-1.56,1.6,1.54,1.54,0,0,0,1.57,1.61c.62,0,.87-.25,1.11-.25a.33.33,0,0,1,.34.33c0,.48-1.1.59-1.45.59a2.21,2.21,0,0,1-2.33-2.28A2.29,2.29,0,0,1,18.44,81c.52,0,1.39.15,1.39.58A.32.32,0,0,1,19.51,81.93Z"/><path d="M22.43,81.72v3.49a.36.36,0,0,1-.72,0V81.72H20.49a.33.33,0,0,1,0-.65h3.15a.33.33,0,0,1,0,.65Z"/><path d="M27.84,85.21a.36.36,0,0,1-.37.35.35.35,0,0,1-.36-.35V84.05H25v1.16a.36.36,0,0,1-.37.35.34.34,0,0,1-.36-.35V82.89a2,2,0,0,1,.59-1.43A1.76,1.76,0,0,1,26,81a1.74,1.74,0,0,1,1.2.45,1.92,1.92,0,0,1,.6,1.43ZM25.28,82a1.34,1.34,0,0,0-.3.92v.49h2.13v-.49a1.32,1.32,0,0,0-.3-.92,1,1,0,0,0-.77-.31A1,1,0,0,0,25.28,82Z"/><path d="M31.46,81.26a.37.37,0,0,1,.36-.25.35.35,0,0,1,.37.36.39.39,0,0,1,0,.14l-1.47,3.68a.54.54,0,0,1-.51.37.52.52,0,0,1-.52-.37l-1.45-3.68a.59.59,0,0,1,0-.14.37.37,0,0,1,.37-.36.38.38,0,0,1,.36.26l1.26,3.35Z"/><path d="M33.43,84.86h2.3a.32.32,0,0,1,0,.64H33.07a.37.37,0,0,1-.37-.35V81.42a.37.37,0,0,1,.37-.35h2.66a.33.33,0,0,1,0,.65h-2.3V83h2a.32.32,0,0,1,0,.64h-2Z"/></g></g><rect id="Rectangle_17" data-name="Rectangle 17" x="8" y="318.5" width="29" height="29.5" rx="3.5" ry="3.5"/></svg>